<svg width="43" height="42" viewBox="0 0 43 42" fill="none" xmlns="http://www.w3.org/2000/svg">
<g clip-path="url(#clip0_520_6647)">
<path d="M38.6064 10.4998H34.6689V9.18726C34.6689 8.49106 34.3924 7.82338 33.9001 7.3311C33.4078 6.83882 32.7401 6.56226 32.0439 6.56226H11.0439C10.3478 6.56226 9.68007 6.83882 9.18779 7.3311C8.69551 7.82338 8.41895 8.49106 8.41895 9.18726V10.4998H4.48145C3.78525 10.4998 3.11757 10.7763 2.62529 11.2686C2.13301 11.7609 1.85645 12.4286 1.85645 13.1248V15.7498C1.85645 17.4902 2.54785 19.1594 3.77856 20.3901C4.38794 20.9995 5.11139 21.4829 5.90759 21.8127C6.70378 22.1425 7.55715 22.3123 8.41895 22.3123H9.01777C9.79091 24.7624 11.265 26.9323 13.258 28.5537C15.2509 30.1752 17.6753 31.1772 20.2314 31.4358V35.4373H16.2939C15.9458 35.4373 15.612 35.5755 15.3659 35.8217C15.1197 36.0678 14.9814 36.4017 14.9814 36.7498C14.9814 37.0979 15.1197 37.4317 15.3659 37.6778C15.612 37.924 15.9458 38.0623 16.2939 38.0623H26.7939C27.142 38.0623 27.4759 37.924 27.722 37.6778C27.9682 37.4317 28.1064 37.0979 28.1064 36.7498C28.1064 36.4017 27.9682 36.0678 27.722 35.8217C27.4759 35.5755 27.142 35.4373 26.7939 35.4373H22.8564V31.4308C28.0966 30.9009 32.4443 27.2243 34.0258 22.3123H34.6689C36.4094 22.3123 38.0786 21.6209 39.3093 20.3901C40.54 19.1594 41.2314 17.4902 41.2314 15.7498V13.1248C41.2314 12.4286 40.9549 11.7609 40.4626 11.2686C39.9703 10.7763 39.3026 10.4998 38.6064 10.4998ZM8.41895 19.6873C7.37466 19.6873 6.37314 19.2724 5.63471 18.534C4.89629 17.7956 4.48145 16.794 4.48145 15.7498V13.1248H8.41895V18.3748C8.41895 18.8123 8.44027 19.2498 8.48293 19.6873H8.41895ZM38.6064 15.7498C38.6064 16.794 38.1916 17.7956 37.4532 18.534C36.7148 19.2724 35.7132 19.6873 34.6689 19.6873H34.5869C34.6408 19.2024 34.6682 18.7149 34.6689 18.2271V13.1248H38.6064V15.7498Z" fill="url(#paint0_linear_520_6647)"/>
</g>
<defs>
<linearGradient id="paint0_linear_520_6647" x1="1.85645" y1="22.3123" x2="41.2314" y2="22.3123" gradientUnits="userSpaceOnUse">
<stop stop-color="#8360C3"/>
<stop offset="1" stop-color="#2EBF91"/>
</linearGradient>
<clipPath id="clip0_520_6647">
<rect width="42" height="42" fill="white" transform="translate(0.543945 -0.000244141)"/>
</clipPath>
</defs>
</svg>
