<svg width="42" height="42" viewBox="0 0 42 42" fill="none" xmlns="http://www.w3.org/2000/svg">
<g clip-path="url(#clip0_517_2708)">
<path d="M15.75 36.75H26.25" stroke="black" stroke-linecap="round" stroke-linejoin="round"/>
<path d="M21 30.1875V36.75" stroke="black" stroke-linecap="round" stroke-linejoin="round"/>
<path d="M9.51562 21H7.875C6.48261 21 5.14726 20.4469 4.16269 19.4623C3.17812 18.4777 2.625 17.1424 2.625 15.75V13.125C2.625 12.7769 2.76328 12.4431 3.00942 12.1969C3.25556 11.9508 3.5894 11.8125 3.9375 11.8125H9.1875" stroke="black" stroke-linecap="round" stroke-linejoin="round"/>
<path d="M32.4844 21H34.125C35.5174 21 36.8527 20.4469 37.8373 19.4623C38.8219 18.4777 39.375 17.1424 39.375 15.75V13.125C39.375 12.7769 39.2367 12.4431 38.9906 12.1969C38.7444 11.9508 38.4106 11.8125 38.0625 11.8125H32.8125" stroke="black" stroke-linecap="round" stroke-linejoin="round"/>
<path d="M10.5 7.875H31.5C31.8481 7.875 32.1819 8.01328 32.4281 8.25942C32.6742 8.50556 32.8125 8.8394 32.8125 9.1875V18.2273C32.8125 24.7406 27.6035 30.1383 21.0902 30.1875C19.5314 30.1994 17.9857 29.9027 16.5421 29.3144C15.0985 28.7261 13.7856 27.8578 12.6791 26.7598C11.5727 25.6617 10.6945 24.3555 10.0952 22.9164C9.49596 21.4773 9.18745 19.9339 9.1875 18.375V9.1875C9.1875 8.8394 9.32578 8.50556 9.57192 8.25942C9.81806 8.01328 10.1519 7.875 10.5 7.875Z" stroke="black" stroke-linecap="round" stroke-linejoin="round"/>
</g>
<defs>
<clipPath id="clip0_517_2708">
<rect width="42" height="42" fill="white"/>
</clipPath>
</defs>
</svg>
