<svg width="10" height="10" viewBox="0 0 10 10" fill="none" xmlns="http://www.w3.org/2000/svg">
<g clip-path="url(#clip0_992_558)">
<path d="M9.60813 4.73194C9.59492 4.70219 9.27522 3.99459 8.56446 3.28549C7.61742 2.34065 6.42126 1.84131 5.10469 1.84131C3.78811 1.84131 2.59195 2.34065 1.64491 3.28549C0.934154 3.99459 0.612937 4.70332 0.601236 4.73194C0.584067 4.77047 0.575195 4.81216 0.575195 4.85433C0.575195 4.89649 0.584067 4.93819 0.601236 4.97671C0.614447 5.00646 0.934154 5.71368 1.64491 6.42278C2.59195 7.36724 3.78811 7.86659 5.10469 7.86659C6.42126 7.86659 7.61742 7.36724 8.56446 6.42278C9.27522 5.71368 9.59492 5.00646 9.60813 4.97671C9.6253 4.93819 9.63418 4.89649 9.63418 4.85433C9.63418 4.81216 9.6253 4.77047 9.60813 4.73194ZM5.10469 6.36027C4.80607 6.36027 4.51416 6.27193 4.26587 6.10641C4.01758 5.94089 3.82406 5.70564 3.70978 5.43039C3.59551 5.15515 3.56561 4.85228 3.62387 4.56008C3.68212 4.26788 3.82592 3.99948 4.03707 3.78882C4.24823 3.57816 4.51725 3.43469 4.81013 3.37657C5.10301 3.31845 5.40659 3.34828 5.68247 3.46229C5.95836 3.5763 6.19416 3.76937 6.36006 4.01708C6.52597 4.2648 6.61452 4.55603 6.61452 4.85395C6.61452 5.25345 6.45545 5.63659 6.1723 5.91908C5.88915 6.20157 5.50512 6.36027 5.10469 6.36027Z" fill="white"/>
</g>
<defs>
<clipPath id="clip0_992_558">
<rect width="9.66292" height="9.64045" fill="white" transform="translate(0.273438 0.0336914)"/>
</clipPath>
</defs>
</svg>
