<svg width="43" height="43" viewBox="0 0 43 43" fill="none" xmlns="http://www.w3.org/2000/svg">
<g opacity="0.8">
<g clip-path="url(#clip0_517_2623)">
<path d="M37.2227 18.9761V34.1437C37.2227 34.8399 36.9461 35.5076 36.4538 35.9998C35.9615 36.4921 35.2938 36.7687 34.5977 36.7687H8.34766C7.65146 36.7687 6.98378 36.4921 6.4915 35.9998C5.99922 35.5076 5.72266 34.8399 5.72266 34.1437V18.9761C5.7226 18.6128 5.79796 18.2535 5.94396 17.9208C6.08997 17.5881 6.30343 17.2894 6.57086 17.0435L19.6959 4.66002L19.7139 4.64198C20.1971 4.20251 20.8269 3.95898 21.48 3.95898C22.1332 3.95898 22.7629 4.20251 23.2462 4.64198C23.2518 4.64839 23.2578 4.65442 23.2642 4.66002L36.3892 17.0435C36.654 17.2907 36.8647 17.59 37.0081 17.9226C37.1515 18.2552 37.2246 18.6139 37.2227 18.9761Z" fill="url(#paint0_linear_517_2623)"/>
</g>
</g>
<defs>
<linearGradient id="paint0_linear_517_2623" x1="5.72266" y1="20.3638" x2="37.2227" y2="20.3638" gradientUnits="userSpaceOnUse">
<stop stop-color="#8360C3"/>
<stop offset="1" stop-color="#2EBF91"/>
</linearGradient>
<clipPath id="clip0_517_2623">
<rect width="42" height="42" fill="white" transform="translate(0.472656 0.0187988)"/>
</clipPath>
</defs>
</svg>
