<svg width="42" height="42" viewBox="0 0 42 42" fill="none" xmlns="http://www.w3.org/2000/svg">
<g opacity="0.8">
<g clip-path="url(#clip0_517_4361)">
<path d="M21.8827 5.59089C21.641 5.37093 21.326 5.24902 20.9992 5.24902C20.6724 5.24902 20.3574 5.37093 20.1157 5.59089L6.9907 17.9842C6.85563 18.1073 6.74778 18.2573 6.67404 18.4246C6.6003 18.5918 6.56231 18.7726 6.5625 18.9554V34.1246C6.5625 34.4727 6.70078 34.8066 6.94692 35.0527C7.19306 35.2989 7.5269 35.4371 7.875 35.4371H34.125C34.4731 35.4371 34.8069 35.2989 35.0531 35.0527C35.2992 34.8066 35.4375 34.4727 35.4375 34.1246V18.9554C35.4375 18.7725 35.3992 18.5916 35.3252 18.4244C35.2512 18.2571 35.143 18.1072 35.0077 17.9842L21.8827 5.59089Z" stroke="black" stroke-width="1.5" stroke-linecap="round" stroke-linejoin="round"/>
</g>
</g>
<defs>
<clipPath id="clip0_517_4361">
<rect width="42" height="42" fill="white" transform="translate(0 -0.000244141)"/>
</clipPath>
</defs>
</svg>
