<svg width="26" height="26" viewBox="0 0 26 26" fill="none" xmlns="http://www.w3.org/2000/svg">
<g filter="url(#filter0_d_517_664)">
<path d="M21.803 5.01099L4.54846 5.01099C4.1153 5.01099 3.76416 5.36213 3.76416 5.79529L3.76416 19.9127C3.76416 20.3458 4.1153 20.697 4.54846 20.697H21.803C22.2362 20.697 22.5873 20.3458 22.5873 19.9127V5.79529C22.5873 5.36213 22.2362 5.01099 21.803 5.01099Z" stroke="white" stroke-width="1.5686" stroke-linecap="round" stroke-linejoin="round"/>
<path d="M15.9206 11.2853C16.5703 11.2853 17.097 10.7586 17.097 10.1088C17.097 9.45909 16.5703 8.93237 15.9206 8.93237C15.2709 8.93237 14.7441 9.45909 14.7441 10.1088C14.7441 10.7586 15.2709 11.2853 15.9206 11.2853Z" fill="white"/>
<path d="M15.0679 16.3834L17.5865 13.8677C17.7335 13.7207 17.9329 13.6382 18.1409 13.6382C18.3488 13.6382 18.5482 13.7207 18.6953 13.8677L22.5864 17.7618" stroke="white" stroke-width="1.5686" stroke-linecap="round" stroke-linejoin="round"/>
<path d="M3.76416 16.843L9.09151 11.5147C9.16435 11.4418 9.25085 11.3839 9.34606 11.3445C9.44127 11.305 9.54333 11.2847 9.6464 11.2847C9.74947 11.2847 9.85153 11.305 9.94674 11.3445C10.042 11.3839 10.1285 11.4418 10.2013 11.5147L19.3825 20.6969" stroke="white" stroke-width="1.5686" stroke-linecap="round" stroke-linejoin="round"/>
</g>
<defs>
<filter id="filter0_d_517_664" x="1.7251" y="4.22681" width="22.9014" height="19.7642" filterUnits="userSpaceOnUse" color-interpolation-filters="sRGB">
<feFlood flood-opacity="0" result="BackgroundImageFix"/>
<feColorMatrix in="SourceAlpha" type="matrix" values="0 0 0 0 0 0 0 0 0 0 0 0 0 0 0 0 0 0 127 0" result="hardAlpha"/>
<feOffset dy="1.25488"/>
<feGaussianBlur stdDeviation="0.627439"/>
<feComposite in2="hardAlpha" operator="out"/>
<feColorMatrix type="matrix" values="0 0 0 0 0 0 0 0 0 0 0 0 0 0 0 0 0 0 0.25 0"/>
<feBlend mode="normal" in2="BackgroundImageFix" result="effect1_dropShadow_517_664"/>
<feBlend mode="normal" in="SourceGraphic" in2="effect1_dropShadow_517_664" result="shape"/>
</filter>
</defs>
</svg>
