<svg width="32" height="32" viewBox="0 0 32 32" fill="none" xmlns="http://www.w3.org/2000/svg">
<g clip-path="url(#clip0_181_128)">
<path d="M11 8H27" stroke="#005A8D" style="stroke:#005A8D;stroke:color(display-p3 0.0000 0.3530 0.5516);stroke-opacity:1;" stroke-width="1.5" stroke-linecap="round" stroke-linejoin="round"/>
<path d="M11 16H27" stroke="#005A8D" style="stroke:#005A8D;stroke:color(display-p3 0.0000 0.3530 0.5516);stroke-opacity:1;" stroke-width="1.5" stroke-linecap="round" stroke-linejoin="round"/>
<path d="M11 24H27" stroke="#005A8D" style="stroke:#005A8D;stroke:color(display-p3 0.0000 0.3530 0.5516);stroke-opacity:1;" stroke-width="1.5" stroke-linecap="round" stroke-linejoin="round"/>
<path d="M5.5 17C6.05228 17 6.5 16.5523 6.5 16C6.5 15.4477 6.05228 15 5.5 15C4.94772 15 4.5 15.4477 4.5 16C4.5 16.5523 4.94772 17 5.5 17Z" fill="#005A8D" style="fill:#005A8D;fill:color(display-p3 0.0000 0.3530 0.5516);fill-opacity:1;"/>
<path d="M5.5 9C6.05228 9 6.5 8.55228 6.5 8C6.5 7.44772 6.05228 7 5.5 7C4.94772 7 4.5 7.44772 4.5 8C4.5 8.55228 4.94772 9 5.5 9Z" fill="#005A8D" style="fill:#005A8D;fill:color(display-p3 0.0000 0.3530 0.5516);fill-opacity:1;"/>
<path d="M5.5 25C6.05228 25 6.5 24.5523 6.5 24C6.5 23.4477 6.05228 23 5.5 23C4.94772 23 4.5 23.4477 4.5 24C4.5 24.5523 4.94772 25 5.5 25Z" fill="#005A8D" style="fill:#005A8D;fill:color(display-p3 0.0000 0.3530 0.5516);fill-opacity:1;"/>
</g>
<defs>
<clipPath id="clip0_181_128">
<rect width="32" height="32" fill="white" style="fill:white;fill-opacity:1;"/>
</clipPath>
</defs>
</svg>
