<svg width="26" height="26" viewBox="0 0 26 26" fill="none" xmlns="http://www.w3.org/2000/svg">
<g filter="url(#filter0_d_517_693)">
<path d="M7.24128 5.25429C7.64967 5.66267 7.64967 6.32479 7.24128 6.73317C3.97316 10.0013 3.97316 15.3 7.24128 18.5681C7.64967 18.9765 7.64967 19.6386 7.24128 20.047C6.8329 20.4554 6.17078 20.4554 5.7624 20.047C1.67751 15.9621 1.67751 9.33918 5.7624 5.25429C6.17078 4.8459 6.8329 4.8459 7.24128 5.25429ZM20.5551 5.25429C24.64 9.33918 24.64 15.9621 20.5551 20.047C20.1467 20.4554 19.4846 20.4554 19.0762 20.047C18.6678 19.6386 18.6678 18.9765 19.0762 18.5681C22.3443 15.3 22.3443 10.0013 19.0762 6.73317C18.6678 6.32479 18.6678 5.66267 19.0762 5.25429C19.4846 4.8459 20.1467 4.8459 20.5551 5.25429ZM10.3436 8.25907C10.752 8.66745 10.752 9.32957 10.3436 9.73796C8.74263 11.3389 8.74263 13.9346 10.3436 15.5356C10.752 15.944 10.752 16.6061 10.3436 17.0145C9.93522 17.4229 9.2731 17.4229 8.86472 17.0145C6.44697 14.5967 6.44697 10.6768 8.86472 8.25907C9.2731 7.85068 9.93522 7.85068 10.3436 8.25907ZM17.6201 8.25907C20.0379 10.6768 20.0379 14.5967 17.6201 17.0145C17.2118 17.4229 16.5496 17.4229 16.1413 17.0145C15.7329 16.6061 15.7329 15.944 16.1413 15.5356C17.7422 13.9346 17.7422 11.3389 16.1413 9.73796C15.7329 9.32957 15.7329 8.66745 16.1413 8.25907C16.5496 7.85068 17.2118 7.85068 17.6201 8.25907ZM13.2424 11.1551C14.1087 11.1551 14.811 11.8574 14.811 12.7237C14.811 13.59 14.1087 14.2923 13.2424 14.2923C12.3761 14.2923 11.6738 13.59 11.6738 12.7237C11.6738 11.8574 12.3761 11.1551 13.2424 11.1551Z" fill="white"/>
</g>
<defs>
<filter id="filter0_d_517_693" x="1.44385" y="4.948" width="23.4297" height="17.915" filterUnits="userSpaceOnUse" color-interpolation-filters="sRGB">
<feFlood flood-opacity="0" result="BackgroundImageFix"/>
<feColorMatrix in="SourceAlpha" type="matrix" values="0 0 0 0 0 0 0 0 0 0 0 0 0 0 0 0 0 0 127 0" result="hardAlpha"/>
<feOffset dy="1.25488"/>
<feGaussianBlur stdDeviation="0.627439"/>
<feComposite in2="hardAlpha" operator="out"/>
<feColorMatrix type="matrix" values="0 0 0 0 0 0 0 0 0 0 0 0 0 0 0 0 0 0 0.25 0"/>
<feBlend mode="normal" in2="BackgroundImageFix" result="effect1_dropShadow_517_693"/>
<feBlend mode="normal" in="SourceGraphic" in2="effect1_dropShadow_517_693" result="shape"/>
</filter>
</defs>
</svg>
