<svg width="43" height="43" viewBox="0 0 43 43" fill="none" xmlns="http://www.w3.org/2000/svg">
<g opacity="0.8">
<g clip-path="url(#clip0_517_2636)">
<path d="M34.9854 21.0942V34.2192C34.9854 34.5673 34.8471 34.9012 34.6009 35.1473C34.3548 35.3935 34.0209 35.5317 33.6729 35.5317H8.73535C8.38725 35.5317 8.05342 35.3935 7.80727 35.1473C7.56113 34.9012 7.42285 34.5673 7.42285 34.2192V9.28174C7.42285 8.93364 7.56113 8.5998 7.80727 8.35366C8.05342 8.10752 8.38725 7.96924 8.73535 7.96924H21.8604" stroke="black" stroke-width="1.5" stroke-linecap="round" stroke-linejoin="round"/>
<path d="M33.0166 14.5317C35.5537 14.5317 37.6104 12.475 37.6104 9.93799C37.6104 7.40093 35.5537 5.34424 33.0166 5.34424C30.4795 5.34424 28.4229 7.40093 28.4229 9.93799C28.4229 12.475 30.4795 14.5317 33.0166 14.5317Z" stroke="black" stroke-width="1.5" stroke-linecap="round" stroke-linejoin="round"/>
</g>
</g>
<defs>
<clipPath id="clip0_517_2636">
<rect width="42" height="42" fill="white" transform="translate(0.860352 0.0942383)"/>
</clipPath>
</defs>
</svg>
