<svg width="43" height="43" viewBox="0 0 43 43" fill="none" xmlns="http://www.w3.org/2000/svg">
<g opacity="0.8">
<g clip-path="url(#clip0_517_4519)">
<path d="M37.2512 36.3659H30.5837C34.0607 34.1753 36.6298 30.8029 37.8183 26.8689C39.0068 22.935 38.7349 18.7042 37.0525 14.9549C35.3701 11.2055 32.3905 8.18967 28.6616 6.46222C24.9328 4.73477 20.7056 4.41186 16.7576 5.55289C12.8097 6.69392 9.4065 9.22214 7.17414 12.6725C4.94178 16.1228 4.03037 20.2632 4.60758 24.332C5.18479 28.4008 7.21178 32.1243 10.3157 34.8177C13.4196 37.511 17.3917 38.993 21.5012 38.9909H37.2512C37.5993 38.9909 37.9332 38.8526 38.1793 38.6065C38.4254 38.3604 38.5637 38.0265 38.5637 37.6784C38.5637 37.3303 38.4254 36.9965 38.1793 36.7503C37.9332 36.5042 37.5993 36.3659 37.2512 36.3659ZM13.6262 25.2097C12.9772 25.2097 12.3428 25.0172 11.8033 24.6567C11.2637 24.2961 10.8431 23.7837 10.5947 23.1841C10.3464 22.5845 10.2814 21.9248 10.408 21.2883C10.5346 20.6518 10.8471 20.0671 11.306 19.6082C11.7649 19.1493 12.3496 18.8368 12.9861 18.7102C13.6226 18.5836 14.2823 18.6486 14.8819 18.8969C15.4815 19.1453 15.9939 19.5659 16.3545 20.1055C16.715 20.6451 16.9075 21.2795 16.9075 21.9284C16.9075 22.7987 16.5618 23.6333 15.9464 24.2486C15.3311 24.864 14.4965 25.2097 13.6262 25.2097ZM21.5012 33.0847C20.8522 33.0847 20.2178 32.8922 19.6783 32.5317C19.1387 32.1711 18.7181 31.6587 18.4697 31.0591C18.2214 30.4595 18.1564 29.7998 18.283 29.1633C18.4096 28.5268 18.7221 27.9421 19.181 27.4832C19.6399 27.0243 20.2246 26.7118 20.8611 26.5852C21.4976 26.4586 22.1573 26.5236 22.7569 26.7719C23.3565 27.0203 23.8689 27.4409 24.2295 27.9805C24.59 28.5201 24.7825 29.1545 24.7825 29.8034C24.7825 30.6737 24.4368 31.5083 23.8214 32.1236C23.2061 32.739 22.3715 33.0847 21.5012 33.0847ZM21.5012 17.3347C20.8522 17.3347 20.2178 17.1422 19.6783 16.7817C19.1387 16.4211 18.7181 15.9087 18.4697 15.3091C18.2214 14.7095 18.1564 14.0498 18.283 13.4133C18.4096 12.7768 18.7221 12.1921 19.181 11.7332C19.6399 11.2743 20.2246 10.9618 20.8611 10.8352C21.4976 10.7086 22.1573 10.7736 22.7569 11.0219C23.3565 11.2703 23.8689 11.6909 24.2295 12.2305C24.59 12.7701 24.7825 13.4045 24.7825 14.0534C24.7825 14.9237 24.4368 15.7583 23.8214 16.3736C23.2061 16.989 22.3715 17.3347 21.5012 17.3347ZM26.095 21.9284C26.095 21.2795 26.2874 20.6451 26.648 20.1055C27.0085 19.5659 27.521 19.1453 28.1205 18.8969C28.7201 18.6486 29.3799 18.5836 30.0164 18.7102C30.6529 18.8368 31.2375 19.1493 31.6964 19.6082C32.1553 20.0671 32.4678 20.6518 32.5944 21.2883C32.721 21.9248 32.656 22.5845 32.4077 23.1841C32.1593 23.7837 31.7388 24.2961 31.1992 24.6567C30.6596 25.0172 30.0252 25.2097 29.3762 25.2097C28.506 25.2097 27.6714 24.864 27.056 24.2486C26.4407 23.6333 26.095 22.7987 26.095 21.9284Z" fill="url(#paint0_linear_517_4519)"/>
</g>
</g>
<defs>
<linearGradient id="paint0_linear_517_4519" x1="4.43848" y1="21.9366" x2="38.5637" y2="21.9366" gradientUnits="userSpaceOnUse">
<stop stop-color="#8360C3"/>
<stop offset="1" stop-color="#2EBF91"/>
</linearGradient>
<clipPath id="clip0_517_4519">
<rect width="42" height="42" fill="white" transform="translate(0.500977 0.928467)"/>
</clipPath>
</defs>
</svg>
