<svg width="42" height="42" viewBox="0 0 42 42" fill="none" xmlns="http://www.w3.org/2000/svg">
<g opacity="0.8">
<g clip-path="url(#clip0_517_2627)">
<path d="M21 36.75C29.6985 36.75 36.75 29.6985 36.75 21C36.75 12.3015 29.6985 5.25 21 5.25C12.3015 5.25 5.25 12.3015 5.25 21C5.25 29.6985 12.3015 36.75 21 36.75Z" stroke="black" stroke-width="1.5" stroke-linecap="round" stroke-linejoin="round"/>
<path d="M21 36.75H36.75" stroke="black" stroke-width="1.5" stroke-linecap="round" stroke-linejoin="round"/>
<path d="M21 15.75C22.4497 15.75 23.625 14.5747 23.625 13.125C23.625 11.6753 22.4497 10.5 21 10.5C19.5503 10.5 18.375 11.6753 18.375 13.125C18.375 14.5747 19.5503 15.75 21 15.75Z" stroke="black" stroke-width="1.5" stroke-linecap="round" stroke-linejoin="round"/>
<path d="M21 31.5C22.4497 31.5 23.625 30.3247 23.625 28.875C23.625 27.4253 22.4497 26.25 21 26.25C19.5503 26.25 18.375 27.4253 18.375 28.875C18.375 30.3247 19.5503 31.5 21 31.5Z" stroke="black" stroke-width="1.5" stroke-linecap="round" stroke-linejoin="round"/>
<path d="M28.875 23.625C30.3247 23.625 31.5 22.4497 31.5 21C31.5 19.5503 30.3247 18.375 28.875 18.375C27.4253 18.375 26.25 19.5503 26.25 21C26.25 22.4497 27.4253 23.625 28.875 23.625Z" stroke="black" stroke-width="1.5" stroke-linecap="round" stroke-linejoin="round"/>
<path d="M13.125 23.625C14.5747 23.625 15.75 22.4497 15.75 21C15.75 19.5503 14.5747 18.375 13.125 18.375C11.6753 18.375 10.5 19.5503 10.5 21C10.5 22.4497 11.6753 23.625 13.125 23.625Z" stroke="black" stroke-width="1.5" stroke-linecap="round" stroke-linejoin="round"/>
</g>
</g>
<defs>
<clipPath id="clip0_517_2627">
<rect width="42" height="42" fill="white"/>
</clipPath>
</defs>
</svg>
