<svg width="32" height="32" viewBox="0 0 32 32" fill="none" xmlns="http://www.w3.org/2000/svg">
<g clip-path="url(#clip0_181_83)">
<path d="M6 17.4488V26C6 26.2652 6.10536 26.5196 6.29289 26.7071C6.48043 26.8947 6.73478 27 7 27H25C25.2652 27 25.5196 26.8947 25.7071 26.7071C25.8946 26.5196 26 26.2652 26 26V17.4488" stroke="#005A8D" style="stroke:#005A8D;stroke:color(display-p3 0.0000 0.3530 0.5516);stroke-opacity:1;" stroke-width="1.5" stroke-linecap="round" stroke-linejoin="round"/>
<path d="M6.75 5H25.25C25.4672 5.00004 25.6785 5.07082 25.852 5.20162C26.0254 5.33243 26.1515 5.51615 26.2113 5.725L28 12H4L5.7925 5.725C5.85206 5.51676 5.97762 5.33349 6.15029 5.20275C6.32296 5.072 6.53341 5.00085 6.75 5Z" stroke="#005A8D" style="stroke:#005A8D;stroke:color(display-p3 0.0000 0.3530 0.5516);stroke-opacity:1;" stroke-width="1.5" stroke-linecap="round" stroke-linejoin="round"/>
<path d="M12 12V14C12 15.0609 11.5786 16.0783 10.8284 16.8284C10.0783 17.5786 9.06087 18 8 18C6.93913 18 5.92172 17.5786 5.17157 16.8284C4.42143 16.0783 4 15.0609 4 14V12" stroke="#005A8D" style="stroke:#005A8D;stroke:color(display-p3 0.0000 0.3530 0.5516);stroke-opacity:1;" stroke-width="1.5" stroke-linecap="round" stroke-linejoin="round"/>
<path d="M20 12V14C20 15.0609 19.5786 16.0783 18.8284 16.8284C18.0783 17.5786 17.0609 18 16 18C14.9391 18 13.9217 17.5786 13.1716 16.8284C12.4214 16.0783 12 15.0609 12 14V12" stroke="#005A8D" style="stroke:#005A8D;stroke:color(display-p3 0.0000 0.3530 0.5516);stroke-opacity:1;" stroke-width="1.5" stroke-linecap="round" stroke-linejoin="round"/>
<path d="M28 12V14C28 15.0609 27.5786 16.0783 26.8284 16.8284C26.0783 17.5786 25.0609 18 24 18C22.9391 18 21.9217 17.5786 21.1716 16.8284C20.4214 16.0783 20 15.0609 20 14V12" stroke="#005A8D" style="stroke:#005A8D;stroke:color(display-p3 0.0000 0.3530 0.5516);stroke-opacity:1;" stroke-width="1.5" stroke-linecap="round" stroke-linejoin="round"/>
</g>
<defs>
<clipPath id="clip0_181_83">
<rect width="32" height="32" fill="white" style="fill:white;fill-opacity:1;"/>
</clipPath>
</defs>
</svg>
