<svg width="264" height="132" viewBox="0 0 264 132" fill="none" xmlns="http://www.w3.org/2000/svg">
<mask id="path-1-inside-1_1162_6049" fill="white">
<path fill-rule="evenodd" clip-rule="evenodd" d="M129.256 0.0181511C95.2185 0.665839 62.7134 14.4685 38.5953 38.5865C37.2106 39.9712 35.8599 41.3836 34.5437 42.8224L95.3999 95.0018C104.481 86.0165 116.547 80.73 129.256 80.1129V0.0181511ZM0.00307465 131.756C0.00307944 100.031 11.4444 69.4858 32.0422 45.6365L92.8193 97.7481C84.6195 107.138 80.0608 119.212 80.0608 131.756L0.00307465 131.756ZM168.279 95.1496C158.884 85.7779 146.256 80.3883 133.02 80.0673V0.000244141C167.512 0.328328 200.521 14.1723 224.935 38.5865C226.369 40.0208 227.767 41.4846 229.128 42.9767L168.279 95.1496ZM231.625 45.7948C252.137 69.6209 263.527 100.101 263.527 131.756H183.47C183.47 119.282 178.962 107.273 170.848 97.9058L231.625 45.7948Z"/>
</mask>
<path fill-rule="evenodd" clip-rule="evenodd" d="M129.256 0.0181511C95.2185 0.665839 62.7134 14.4685 38.5953 38.5865C37.2106 39.9712 35.8599 41.3836 34.5437 42.8224L95.3999 95.0018C104.481 86.0165 116.547 80.73 129.256 80.1129V0.0181511ZM0.00307465 131.756C0.00307944 100.031 11.4444 69.4858 32.0422 45.6365L92.8193 97.7481C84.6195 107.138 80.0608 119.212 80.0608 131.756L0.00307465 131.756ZM168.279 95.1496C158.884 85.7779 146.256 80.3883 133.02 80.0673V0.000244141C167.512 0.328328 200.521 14.1723 224.935 38.5865C226.369 40.0208 227.767 41.4846 229.128 42.9767L168.279 95.1496ZM231.625 45.7948C252.137 69.6209 263.527 100.101 263.527 131.756H183.47C183.47 119.282 178.962 107.273 170.848 97.9058L231.625 45.7948Z" fill="url(#paint0_linear_1162_6049)"/>
<path d="M38.5953 38.5865L37.8882 37.8794L38.5953 38.5865ZM129.256 0.0181511L130.256 0.0181511V-1.00106L129.236 -0.981668L129.256 0.0181511ZM34.5437 42.8224L33.8059 42.1474L33.1088 42.9093L33.8928 43.5815L34.5437 42.8224ZM95.3999 95.0018L94.749 95.761L95.4483 96.3606L96.1032 95.7127L95.3999 95.0018ZM129.256 80.1129L129.304 81.1118L130.256 81.0655V80.1129H129.256ZM32.0422 45.6365L32.6931 44.8773L31.9366 44.2288L31.2853 44.9829L32.0422 45.6365ZM0.00307465 131.756H-0.996925L-0.996925 132.756H0.00307446L0.00307465 131.756ZM92.8193 97.7481L93.5725 98.4059L94.2362 97.6458L93.4702 96.989L92.8193 97.7481ZM80.0608 131.756V132.756H81.0608V131.756H80.0608ZM168.279 95.1496L167.573 95.8576L168.228 96.5108L168.93 95.9087L168.279 95.1496ZM133.02 80.0673H132.02V81.0433L132.996 81.067L133.02 80.0673ZM133.02 0.000244141L133.03 -0.999711L132.02 -1.00931V0.000244141L133.02 0.000244141ZM224.935 38.5865L225.642 37.8794V37.8794L224.935 38.5865ZM229.128 42.9767L229.779 43.7359L230.561 43.0648L229.867 42.3029L229.128 42.9767ZM231.625 45.7948L232.383 45.1423L231.732 44.386L230.974 45.0356L231.625 45.7948ZM263.527 131.756V132.756H264.527V131.756H263.527ZM183.47 131.756H182.47V132.756H183.47V131.756ZM170.848 97.9058L170.198 97.1467L169.435 97.8009L170.093 98.5605L170.848 97.9058ZM39.3024 39.2936C63.2374 15.3586 95.4959 1.66074 129.275 1.01797L129.236 -0.981668C94.9412 -0.329064 62.1893 13.5783 37.8882 37.8794L39.3024 39.2936ZM35.2815 43.4973C36.5877 42.0695 37.9282 40.6679 39.3024 39.2936L37.8882 37.8794C36.493 39.2746 35.132 40.6977 33.8059 42.1474L35.2815 43.4973ZM96.0508 94.2426L35.1946 42.0632L33.8928 43.5815L94.749 95.761L96.0508 94.2426ZM129.207 79.1141C116.253 79.7431 103.954 85.1318 94.6965 94.2909L96.1032 95.7127C105.009 86.9011 116.842 81.7169 129.304 81.1118L129.207 79.1141ZM128.256 0.0181511V80.1129H130.256V0.0181511L128.256 0.0181511ZM31.2853 44.9829C10.5313 69.0132 -0.99692 99.7905 -0.996925 131.756H1.00307C1.00308 100.272 12.3576 69.9584 32.799 46.2901L31.2853 44.9829ZM93.4702 96.989L32.6931 44.8773L31.3912 46.3956L92.1683 98.5073L93.4702 96.989ZM81.0608 131.756C81.0608 119.455 85.5313 107.614 93.5725 98.4059L92.0661 97.0904C83.7076 106.662 79.0608 118.969 79.0608 131.756H81.0608ZM0.00307446 132.756L80.0608 132.756V130.756L0.00307484 130.756L0.00307446 132.756ZM168.986 94.4415C159.408 84.8886 146.537 79.3948 133.044 79.0675L132.996 81.067C145.976 81.3817 158.359 86.6671 167.573 95.8576L168.986 94.4415ZM134.02 80.0673V0.000244141L132.02 0.000244141V80.0673H134.02ZM133.011 1.0002C167.241 1.32579 199.999 15.0647 224.228 39.2936L225.642 37.8794C201.043 13.2799 167.784 -0.669136 133.03 -0.999711L133.011 1.0002ZM224.228 39.2936C225.651 40.717 227.039 42.1698 228.389 43.6506L229.867 42.3029C228.496 40.7995 227.087 39.3245 225.642 37.8794L224.228 39.2936ZM228.477 42.2176L167.628 94.3904L168.93 95.9087L229.779 43.7359L228.477 42.2176ZM230.867 46.4472C251.223 70.0925 262.527 100.342 262.527 131.756H264.527C264.527 99.8612 253.05 69.1493 232.383 45.1423L230.867 46.4472ZM263.527 130.756H183.47V132.756H263.527V130.756ZM184.47 131.756C184.47 119.041 179.875 106.799 171.604 97.2511L170.093 98.5605C178.049 107.746 182.47 119.523 182.47 131.756H184.47ZM171.499 98.665L232.276 46.5539L230.974 45.0356L170.198 97.1467L171.499 98.665Z" fill="url(#paint1_linear_1162_6049)" mask="url(#path-1-inside-1_1162_6049)"/>
<defs>
<linearGradient id="paint0_linear_1162_6049" x1="0.00307465" y1="65.8783" x2="263.527" y2="65.8783" gradientUnits="userSpaceOnUse">
<stop stop-color="#8360C3"/>
<stop offset="1" stop-color="#2EBF91"/>
</linearGradient>
<linearGradient id="paint1_linear_1162_6049" x1="253.234" y1="106.023" x2="110.173" y2="-152.024" gradientUnits="userSpaceOnUse">
<stop stop-color="white" stop-opacity="0.5"/>
<stop offset="1" stop-color="white" stop-opacity="0.03"/>
</linearGradient>
</defs>
</svg>
